PathFileType	4	(X/Y/Z)	C:\Users\WrightLab\Desktop\Jo\P1_boxCal14.trc
DataRate	CameraRate	NumFrames	NumMarkers	Units	OrigDataRate	OrigDataStartFrame	OrigNumFrames
100.00	100.00	       25	19	mm	100.00	102	       811
Frame#	Time	Headset_Front			Headset_Back			Headset_Left			Headset_Right			Left_Shoulder			Right_Shoulder			Sternum			C7			Left Elbow			Right Elbow			Left Wrist			Right Wrist			Left ASIS			Right ASIS			S2			Left Knee			Right Knee			Left Ankle			Right Ankle			
		X1	Y1	Z1	X2	Y2	Z2	X3	Y3	Z3	X4	Y4	Z4	X5	Y5	Z5	X6	Y6	Z6	X7	Y7	Z7	X8	Y8	Z8	X9	Y9	Z9	X10	Y10	Z10	X11	Y11	Z11	X12	Y12	Z12	X13	Y13	Z13	X14	Y14	Z14	X15	Y15	Z15	X16	Y16	Z16	X17	Y17	Z17	X18	Y18	Z18	X19	Y19	Z19	

102	1.010	-895.87500	498.92831	1704.66370	-828.76257	1287.47729	1767.72839							-873.79144	1138.34192	768.13464													-717.41949	919.79889	1587.86206	-957.02820	153.53101	1599.28357																-1194.65906	1298.60083	1874.07275							
103	1.020	-899.79712	499.02148	1692.11682	-830.45410	1284.53870	1759.75940							-876.40240	1136.62158	760.72699													-718.53503	916.31635	1580.47253	-963.51990	154.76144	1589.55579																-1196.36072	1297.52612	1865.14697							
104	1.030	-904.41760	496.30716	1685.36731	-832.14569	1281.78760	1752.58496							-879.08826	1134.68518	753.84625													-718.72839	912.30499	1573.06812	-967.80701	154.88570	1577.91992				-1143.88354	892.75250	1751.08655										-1198.00220	1296.61279	1857.61755							
105	1.040	-909.24261	494.79492	1676.30798	-833.25238	1278.94568	1744.62036							-881.60052	1133.34448	745.51318													-719.60461	908.42090	1565.69177	-971.58527	152.44188	1570.31592				-1147.73743	890.81885	1745.92310										-1199.46838	1295.41760	1850.20618							
106	1.050	-914.43036	494.35196	1665.10999	-834.81726	1276.09070	1737.33801																						-720.50818	904.61041	1558.60022	-973.98065	149.77724	1561.40796				-1150.91528	889.99316	1733.74951										-1200.72729	1294.84839	1841.50769							
107	1.060	-920.13098	493.94141	1654.46765	-836.05627	1273.09644	1729.20752																						-721.43005	900.71429	1551.49414	-976.71307	145.43517	1559.41858				-1154.58862	888.41229	1726.95142										-1201.98425	1293.76135	1832.96960							
108	1.070	-925.46643	492.39252	1643.05835	-837.11847	1270.17566	1720.44287																						-722.95221	896.38324	1545.04492	-977.60712	140.04517	1555.04968				-1158.04895	888.27814	1716.06042										-1203.47168	1293.05481	1824.55566							
109	1.080	-931.16309	490.39090	1636.37341	-838.28882	1267.04858	1713.28809																						-723.63080	892.08386	1537.36340	-978.62415	136.22585	1551.21948				-1162.24731	886.62042	1712.71985										-1204.27283	1292.33887	1815.49170							
110	1.090	-936.23828	489.05194	1624.90125	-839.21094	1263.96655	1705.87073																						-723.87396	887.86700	1529.53796	-979.60095	130.24626	1551.11963				-1165.58716	885.61871	1702.71606										-1205.63257	1291.48389	1806.77258							
111	1.100	-941.65533	485.99683	1617.69849	-839.82117	1261.04382	1696.97559																						-724.85504	883.90210	1521.36145	-979.88007	127.56311	1544.92139				-1169.19434	885.70508	1695.57581										-1206.42957	1291.15637	1796.85132							
112	1.110	-946.13245	484.07043	1605.43811	-840.58832	1257.75134	1689.20972																						-725.66272	879.01544	1514.01660	-981.26617	126.23192	1541.17432				-1172.32666	884.56104	1684.76172										-1207.11047	1290.45850	1788.34009							
113	1.120	-950.17004	483.04852	1593.81274	-841.53674	1254.87463	1681.32605																						-726.29016	875.30048	1506.36145	-982.11389	123.55599	1535.56494				-1175.96680	884.47736	1677.03589										-1208.30615	1290.61377	1779.43433							
114	1.130	-953.83917	481.02917	1587.41895	-842.03802	1252.38452	1672.45093							-1332.14514	987.34003	1573.84668													-726.72046	870.83624	1497.82886	-983.01300	121.36241	1528.46191				-1178.73547	885.02490	1664.14539										-1208.68152	1290.81079	1768.36609							
115	1.140	-956.75726	481.22552	1574.78235	-842.49481	1249.90894	1664.69031							-1333.21924	987.13605	1564.33337													-727.56543	866.69916	1490.66248	-982.98914	120.41293	1520.38953				-1182.35071	884.91693	1658.35303										-1209.59192	1290.86096	1760.16443	-1003.72577	1279.85437	1796.53308				
116	1.150	-959.54358	479.93198	1569.22217	-843.15131	1247.96692	1655.87634																						-727.82410	862.23120	1483.71008	-983.48608	118.96277	1513.96863				-1184.84778	885.28259	1646.69641										-1210.42639	1291.81836	1751.05115							
117	1.160	-961.25647	481.50510	1557.29822	-844.15009	1246.34534	1646.45313							-1001.90442	1279.05322	1776.68628													-728.34204	858.26782	1475.74744	-983.89050	116.94496	1509.04553				-1187.12756	885.05530	1637.29736										-1211.02905	1292.87354	1741.16614	-1339.81738	988.61450	1548.61243				
118	1.170	-963.37823	482.23349	1548.13184	-844.91931	1245.06580	1638.91431													-1000.91302	1279.19202	1765.23694	-1003.19690	868.28186	1555.14954				-729.61517	854.47638	1468.70483	-984.87183	115.08182	1505.35132				-1189.57642	886.79163	1626.14038										-1211.92810	1294.31726	1731.89233							
119	1.180	-965.62592	482.19052	1543.13318	-845.69824	1244.28284	1630.86304													-999.73743	1279.38171	1753.58020	-1005.73419	865.98645	1551.78540				-726.89783	851.93073	1459.51196	-985.45599	113.38444	1501.86780				-1191.53943	888.35229	1615.52148										-1212.75452	1296.12451	1722.19202							
120	1.190	-968.53021	484.40320	1532.37134	-847.15942	1244.13269	1622.43347													-998.68231	1279.41333	1743.93872	-1006.92938	869.23608	1537.86401				-731.62793	847.32416	1454.34814	-986.66705	111.65656	1501.12170				-1192.67358	889.36066	1604.65344										-1213.78528	1298.08423	1712.35156							
121	1.200	-970.01563	486.44937	1524.18884	-848.60431	1244.17407	1613.88940													-997.33588	1279.80029	1731.71204							-731.29950	844.50616	1447.08289	-987.68451	110.43288	1499.63318				-1194.90881	890.27594	1597.67908										-1214.82471	1300.29504	1703.65759	-1009.04218	869.40320	1533.46045				
122	1.210	-971.39606	487.54285	1518.26501	-850.04077	1244.22876	1605.90930													-996.06738	1280.27319	1719.53357	-1010.17920	870.88629	1525.65247				-732.15826	840.26672	1441.57788	-988.64606	110.02444	1499.32715				-1195.51733	892.98846	1584.94275										-1215.86584	1302.27820	1694.76733							
123	1.220	-972.19165	488.48047	1513.08752	-851.97461	1244.73999	1598.95288																-1011.78851	873.43524	1517.36047				-732.16431	838.60016	1435.53723	-988.77014	110.24609	1498.89087				-1197.18958	894.28601	1576.05530										-1217.31018	1304.56665	1685.64087							
124	1.230	-972.49170	488.59351	1507.34485	-853.45325	1245.19043	1591.24707																						-731.91962	835.46887	1427.57581	-989.22656	110.71239	1498.25574				-1197.39087	896.29364	1562.55542										-1218.37170	1306.72046	1676.53113							
125	1.240	-971.57764	488.90506	1500.76270	-855.49835	1245.79944	1582.87927							-1012.91107	875.59790	1500.29663													-732.71381	832.73413	1422.52271	-988.31421	111.80083	1498.24866				-1199.16248	897.41394	1556.62537																			
126	1.250	-971.13507	488.72446	1495.82300	-857.02386	1246.50708	1575.20752							-1014.07727	876.99194	1493.95398													-733.28192	830.93860	1417.33862	-987.80011	112.71217	1496.89233				-1200.14233	898.02191	1547.64404										-1073.28809	1411.36230	1384.06238	-1221.51868	1310.43762	1660.59180				
